<?xml version="1.0" encoding="iso-8859-1"?>
<!-- Generator: Adobe Illustrator 16.0.0, SVG Export Plug-In . SVG Version: 6.00 Build 0)  -->
<!DOCTYPE svg PUBLIC "-//W3C//DTD SVG 1.1//EN" "http://www.w3.org/Graphics/SVG/1.1/DTD/svg11.dtd">
<svg version="1.1" id="Capa_1" xmlns="http://www.w3.org/2000/svg" xmlns:xlink="http://www.w3.org/1999/xlink" x="0px" y="0px"
	 width="612px" height="612px" viewBox="0 0 612 612" style="enable-background:new 0 0 612 612;" xml:space="preserve">
<g>
	<g id="Heart_1_">
		<g>
			<path d="M449.438,38.25c-62.137,0-116.069,34.884-143.438,86.101C278.632,73.134,224.7,38.25,162.562,38.25
				C72.79,38.25,0,111.04,0,200.812c0,27.521,6.904,53.397,18.972,76.118c0.459,3.442,5.011,10.404,12.794,20.119
				c4.992,6.771,10.366,13.235,16.313,19.125C121.138,398.431,306,573.75,306,573.75s184.862-175.319,257.92-257.557
				c5.947-5.909,11.322-12.374,16.313-19.125c7.784-9.716,12.336-16.677,12.795-20.12C605.096,254.209,612,228.333,612,200.812
				C612,111.04,539.21,38.25,449.438,38.25z M572.852,215.233c-0.173,1.396-0.421,2.773-0.632,4.169
				c-0.517,3.385-1.128,6.732-1.894,10.021c-0.344,1.435-0.707,2.85-1.09,4.284c-0.918,3.347-1.989,6.636-3.175,9.888
				c-0.401,1.109-0.784,2.238-1.224,3.347c-1.702,4.265-3.596,8.434-5.737,12.451c-1.588,2.945-3.5,5.68-5.298,8.491
				c0.058,0.058,0.21,0.268,0.248,0.325c8.09,9.314-235.849,245.909-248.051,254.955C293.798,514.118,49.859,277.523,57.968,268.19
				c0.039-0.058,0.191-0.268,0.249-0.325c-1.797-2.812-3.71-5.527-5.297-8.492c-2.142-4.016-4.036-8.186-5.738-12.45
				c-0.439-1.109-0.822-2.238-1.224-3.347c-1.186-3.232-2.257-6.522-3.175-9.888c-0.383-1.416-0.765-2.831-1.09-4.284
				c-0.784-3.29-1.396-6.617-1.913-10.002c-0.21-1.396-0.459-2.773-0.631-4.169c-0.536-4.743-0.899-9.543-0.899-14.42
				C38.25,132.154,93.904,76.5,162.562,76.5c5.604,0,11.073,0.497,16.486,1.224c1.377,0.191,2.735,0.401,4.112,0.631
				c4.934,0.823,9.773,1.875,14.478,3.251c0.402,0.115,0.822,0.191,1.224,0.306c5.202,1.588,10.213,3.577,15.089,5.795
				c0.918,0.421,1.817,0.88,2.735,1.32c4.399,2.142,8.664,4.514,12.756,7.134l0.058-0.536c0,0,5.47,4.055,13.407,10.576
				c0.344,0.287,0.727,0.517,1.071,0.803c0.229,0.191,0.44,0.402,0.65,0.593c16.562,13.751,43.146,37.81,61.372,64.528
				c18.227-26.718,44.81-50.777,61.372-64.509c0.21-0.191,0.421-0.401,0.65-0.593c0.344-0.287,0.727-0.516,1.071-0.803
				C377.03,99.68,382.5,95.625,382.5,95.625l0.058,0.536c4.093-2.62,8.357-4.992,12.756-7.134c0.918-0.44,1.817-0.899,2.735-1.32
				c4.877-2.218,9.888-4.207,15.09-5.795c0.401-0.114,0.822-0.191,1.224-0.306c4.705-1.377,9.562-2.429,14.478-3.251
				c1.357-0.229,2.716-0.44,4.112-0.631c5.412-0.727,10.882-1.224,16.485-1.224c68.659,0,124.312,55.654,124.312,124.312
				C573.75,205.689,573.406,210.49,572.852,215.233z"/>
		</g>
	</g>
</g>
<g>
</g>
<g>
</g>
<g>
</g>
<g>
</g>
<g>
</g>
<g>
</g>
<g>
</g>
<g>
</g>
<g>
</g>
<g>
</g>
<g>
</g>
<g>
</g>
<g>
</g>
<g>
</g>
<g>
</g>
</svg>
