<?xml version="1.0" standalone="no"?><!DOCTYPE svg PUBLIC "-//W3C//DTD SVG 1.1//EN" "http://www.w3.org/Graphics/SVG/1.1/DTD/svg11.dtd"><svg t="1703226726504" class="icon" viewBox="0 0 1024 1024" version="1.1" xmlns="http://www.w3.org/2000/svg" p-id="5590" xmlns:xlink="http://www.w3.org/1999/xlink" width="200" height="200"><path d="M512 512m-512 0a512 512 0 1 0 1024 0 512 512 0 1 0-1024 0Z" fill="#D22633" p-id="5591"></path><path d="M456.96 179.23072s-63.34976-2.90304-103.74656 49.64864c-40.41728 52.54656-10.06592 132.8128 9.09824 174.21824 19.15904 41.40544 120.2688 203.8784 123.98592 207.45216 3.6864 3.584 8.12544 2.0736 8.36608-1.13664 0.24576-3.18976 11.55072-236.0832 2.4576-293.504-9.10336-57.42592-36.03968-130.3808-40.15616-136.6784zM238.01856 287.488c-7.2448 0.78336-59.2128 52.9408-63.8976 103.936-4.70528 50.9952 16.98304 84.93568 77.53728 125.53728 60.95872 43.49952 205.824 123.53024 208.4864 116.6336 2.6624-6.87104-56.13568-112.0256-104.25856-188.50304-48.11264-76.47744-110.65856-158.38208-117.86752-157.60384z m19.4816 470.4c43.84256 19.72736 112.13824-24.576 131.03616-37.46304 17.56672-13.51168 50.0224-38.3488 50.0224-38.3488l-248.4224 6.69184s23.52128 49.38752 67.36384 69.12z m6.24128-202.04544c-44.46208-22.4-135.936-73.856-139.51488-72.86784-3.57376 0.98304-17.3568 64.99328 11.24864 113.23904s84.31616 63.0016 109.88544 66.944c28.74368 4.1216 197.74976 2.2784 196.61824-1.14176-0.9984-2.98496-133.74976-83.79392-178.23744-106.17344z m412.16-326.96832c-40.3968-52.55168-103.75168-49.64864-103.75168-49.64864-4.11136 6.2976-31.0528 79.25248-40.15104 136.6784-9.09824 57.42592 2.23232 290.31424 2.47296 293.504 0.24576 3.21024 4.6592 4.72064 8.36608 1.14176 3.6864-3.57888 104.82688-166.05184 123.99104-207.45728 19.13344-41.40544 49.48992-121.67168 9.07264-174.21824z m228.98688 254.09536c-3.57376-0.98304-95.04768 50.47808-139.50976 72.87296-44.45696 22.3744-177.23904 103.18336-178.21184 106.16832-1.15712 3.42016 167.85408 5.26848 196.59776 1.14176 25.56416-3.9424 81.26976-18.69312 109.88032-66.93888 28.63104-48.24576 14.8224-112.26112 11.24352-113.24416z m-264.2944 237.45536c18.88768 12.88704 87.21408 57.1904 131.05664 37.46304 43.84256-19.73248 67.36384-69.12 67.36384-69.12l-248.4224-6.69184s32.45056 24.84224 49.9968 38.3488z m214.43072-329.00096c-4.7104-50.9952-56.6784-103.15264-63.88736-103.936-7.23968-0.77824-69.7856 81.12128-117.90336 157.60384-48.12288 76.47744-106.91584 181.632-104.25344 188.50816 2.6624 6.89152 147.55328-73.1392 208.4864-116.63872 60.54912-40.6016 82.26816-74.54208 77.55776-125.53728z" fill="#FFFFFF" p-id="5592"></path></svg>