<?xml version="1.0" standalone="no"?><!DOCTYPE svg PUBLIC "-//W3C//DTD SVG 1.1//EN" "http://www.w3.org/Graphics/SVG/1.1/DTD/svg11.dtd"><svg t="1703231244728" class="icon" viewBox="0 0 1024 1024" version="1.1" xmlns="http://www.w3.org/2000/svg" p-id="11477" xmlns:xlink="http://www.w3.org/1999/xlink" width="200" height="200"><path d="M417.647616 588.131328c-15.76448 1.64864-27.025408 15.35488-27.025408 28.43136 0 13.106176 12.70784 22.189056 28.384256 20.347904 15.586304-1.804288 28.383232-13.922304 28.383232-26.943488 0.001024-13.198336-11.754496-23.590912-29.74208-21.835776z m39.258112-98.470912c-83.5584 3.796992-151.122944 48.5376-151.122944 104.42752 0 55.776256 67.564544 97.631232 151.122944 93.759488 83.5584-3.801088 151.281664-56.170496 151.281664-111.896576 0-55.740416-67.724288-90.167296-151.281664-86.290432z m56.850432 140.37504c-25.51296 33.017856-76.120064 49.176576-125.376512 22.54848-23.354368-12.675072-22.5536-37.622784-22.5536-37.622784s-9.673728-78.770176 74.360832-88.602624c84.207616-9.797632 99.24096 70.611968 73.56928 103.676928z m-56.292352-52.740096c-5.44256 3.963904-6.472704 11.35616-3.600384 16.043008 2.80064 4.714496 9.279488 5.311488 14.639104 1.349632 5.194752-4.117504 7.272448-11.283456 4.472832-16.034816-2.79552-4.636672-9.274368-5.95456-15.511552-1.357824z m54.53312-524.668928c-252.758016 0-457.621504 204.867584-457.621504 457.621504 0 252.8 204.863488 457.63072 457.621504 457.63072 252.765184 0 457.627648-204.83072 457.627648-457.63072 0-252.75392-204.862464-457.621504-457.627648-457.621504z m170.883072 560.300032c-34.468864 73.193472-148.012032 108.786688-232.288256 102.191104-79.970304-6.272-182.792192-32.794624-193.513472-129.703936 0 0-5.595136-43.771904 36.862976-100.54144 0 0 61.170688-85.490688 132.494336-109.792256 71.333888-24.271872 79.5648 16.792576 79.5648 41.056256-3.753984 20.589568-10.9568 32.61952 15.827968 24.349696 0 0 70.137856-32.502784 98.915328-3.685376 23.354368 23.312384 3.843072 55.333888 3.843072 55.333888s-9.679872 10.647552 10.231808 14.508032c19.835904 3.924992 82.52416 32.951296 48.06144 106.284032z m-69.08928-202.22976c-7.597056 0-13.751296-6.145024-13.751296-13.71648 0-7.673856 6.15424-13.872128 13.751296-13.872128 0 0 85.881856-15.864832 75.643904 76.40576 0 0.598016-0.082944 1.00352-0.15872 1.435648-1.117184 6.5536-6.713344 11.594752-13.432832 11.594752-7.760896 0-13.915136-6.156288-13.915136-13.717504 0 0.002048 13.596672-61.771776-48.137216-48.130048z m145.210368 64.328704h-0.0768c-2.318336 33.358848-10.073088 21.670912-19.351552 21.670912-11.031552 0-19.82976-5.511168-19.82976-16.637952 0-9.554944 3.912704-17.619968 3.912704-17.619968 1.118208-4.001792 10.556416-28.237824-6.148096-65.696768-30.555136-51.283968-92.11904-51.61472-99.398656-48.653312-7.195648 2.829312-18.152448 4.521984-18.152448 4.521984-11.032576 0-19.987456-8.877056-19.987456-19.830784 0-9.283584 6.07232-16.877568 14.55104-19.279872 0 0 0.23552-0.024576 0.55808-0.11776a20.626432 20.626432 0 0 1 1.917952-0.314368c8.479744-1.600512 39.023616-13.314048 68.773888-6.365184 53.16608 12.35968 126.02368 68.642816 93.231104 168.323072z" fill="#8a8a8a" p-id="11478"></path></svg>