<?xml version="1.0" standalone="no"?><!DOCTYPE svg PUBLIC "-//W3C//DTD SVG 1.1//EN" "http://www.w3.org/Graphics/SVG/1.1/DTD/svg11.dtd"><svg t="1703231214505" class="icon" viewBox="0 0 1025 1024" version="1.1" xmlns="http://www.w3.org/2000/svg" p-id="9497" xmlns:xlink="http://www.w3.org/1999/xlink" width="200.1953125" height="200"><path d="M570.934673 511.510499c-10.21403 0-20.43106 9.482028-20.43106 21.166062 0 9.484028 10.21403 18.967056 20.43106 18.967056 15.332045 0 26.277077-9.484028 26.277077-18.967056C597.21075 520.997526 586.266718 511.510499 570.934673 511.510499L570.934673 511.510499 570.934673 511.510499 570.934673 511.510499zM503.799476 412.98521c16.057047 0 26.271077-10.21403 26.271077-25.546075 0-16.053047-10.21403-25.541075-26.271077-25.541075-15.328045 0-29.925088 9.488028-29.925088 25.541075C473.874388 402.77518 488.471431 412.98521 503.799476 412.98521L503.799476 412.98521 503.799476 412.98521 503.799476 412.98521zM511.826499 63.943187c-247.385725 0-447.935312 200.545588-447.935312 447.930312 0 247.388725 200.549588 447.934312 447.935312 447.934312 247.384725 0 447.929312-200.545588 447.929312-447.934312C959.755812 264.487775 759.215224 63.943187 511.826499 63.943187L511.826499 63.943187 511.826499 63.943187 511.826499 63.943187zM427.167251 625.362832c-27.003079 0-46.708137-4.379013-72.254212-11.684034l-73.710216 37.225109 21.171062-62.765184c-51.817152-36.481107-82.471242-82.463242-82.471242-138.663406 0-99.251291 93.416274-175.148513 207.265607-175.148513 100.711295 0 190.484558 59.840175 207.998609 144.507423-7.301021-1.470004-13.871041-2.196006-19.706058-2.196006-99.256291 0-175.879515 74.440218-175.879515 164.204481 0 15.328045 2.187006 29.193086 5.835017 43.795128C439.580288 625.362832 433.006269 625.362832 427.167251 625.362832L427.167251 625.362832 427.167251 625.362832 427.167251 625.362832zM731.500143 696.881042l14.592043 52.548154-55.464162-31.380092c-21.163062 4.374013-41.600122 10.945032-62.762184 10.945032-97.795287 0-175.153513-67.141197-175.153513-150.33844 0-83.198244 77.358227-150.33844 175.153513-150.33844 92.686272 0 175.883515 67.141197 175.883515 150.33844C803.749355 625.362832 772.368263 666.957954 731.500143 696.881042L731.500143 696.881042 731.500143 696.881042 731.500143 696.881042zM359.296053 361.89806c-15.328045 0-31.380092 9.488028-31.380092 25.541075 0 15.332045 16.053047 25.551075 31.380092 25.551075 14.597043 0 26.271077-10.21903 26.271077-25.551075C385.56713 371.386088 373.893095 361.89806 359.296053 361.89806L359.296053 361.89806 359.296053 361.89806 359.296053 361.89806zM685.518008 511.510499c-10.945032 0-20.43306 9.482028-20.43306 21.166062 0 9.484028 9.488028 18.967056 20.43306 18.967056 14.596043 0 25.545075-9.484028 25.545075-18.967056C711.063083 520.997526 700.114051 511.510499 685.518008 511.510499L685.518008 511.510499 685.518008 511.510499 685.518008 511.510499zM685.518008 511.510499" fill="#272636" p-id="9498"></path></svg>