<?xml version="1.0" standalone="no"?><!DOCTYPE svg PUBLIC "-//W3C//DTD SVG 1.1//EN" "http://www.w3.org/Graphics/SVG/1.1/DTD/svg11.dtd"><svg t="1703317672740" class="icon" viewBox="0 0 1024 1024" version="1.1" xmlns="http://www.w3.org/2000/svg" p-id="6416" xmlns:xlink="http://www.w3.org/1999/xlink" width="200" height="200"><path d="M545.027 184.222C486.52 110.737 400.243 72.74 341.06 66.127c-60.59-6.77-44.597 29.766-44.597 29.766 12.371 15.767 43.743 89.17 53.322 111.914C218.76 246.649 72.213 339.453 72.213 543.81v53.883c0 303.163 322.56 361.016 438.42 361.016s441.152-56.554 441.152-361.016V543.81c0-278.2-271.517-349.375-406.758-359.588z m335.012 245.793c-6.95 2.547-22.852 12.573-25.839 51.253l-0.15-0.04c-0.792 8.098-1.874 16.498-3.015 25.316l-0.021 0.154c-4.768 36.846-14.177 67.783-27.965 91.954-19.286 33.805-47.142 53.717-80.561 57.58-24.389 2.821-44.955 4.19-62.871 4.19-51.894 0-82.38-11.535-105.215-39.825-30.632-37.94-45.524-108.596-62.316-108.596-16.789 0-34.209 70.531-64.945 108.596-22.836 28.29-53.321 39.825-105.212 39.825-17.92 0-38.486-1.369-62.873-4.19-33.42-3.862-61.275-23.774-80.563-57.58-13.785-24.171-23.194-55.108-27.966-91.954l-0.018-0.154c-1.676-12.951-3.235-25.013-3.918-36.512-2.224-25.484-12.435-35.104-19.322-38.714-0.245-0.13-0.474-0.285-0.723-0.362-5.407-1.727-6.09-7.351-6.09-8.408 0-10.264-1.109-33.19-1.109-47.445 0-10.638 8.82-11.481 10.48-11.481 61.249 0 203.277 1.297 266.575 22.15 18.905 6.226 66.614 33.464 95.687 33.464s73.103-27.404 93.054-33.464c55.935-16.993 207.59-22.194 269.656-22.194 4.705 0 10.03 3.853 9.857 11.69-0.303 13.563-1.058 36.39-1.058 47.44-0.004 0.43 0.788 5.712-3.56 7.307z m-481.148 0.036c-1.37-0.374-2.887-0.771-4.516-1.183-22.645-5.72-68.988-14.577-105.271-14.577-15.986-0.001-30.012 1.717-39.203 6.181-22.787 11.07-25.797 30.533-23.743 57.055 0.599 7.7 1.617 15.992 2.709 24.853 5.846 47.452 23.495 98.673 66.608 103.907 19.353 2.351 35.298 3.423 48.549 3.423 40.765 0 56.108-10.146 67.135-24.496 63.101-82.085 43.823-139.838-12.268-155.163z m375.144-9.579c-9.214-4.464-23.277-6.182-39.304-6.181-36.377 0-82.84 8.856-105.545 14.577-1.633 0.412-3.155 0.81-4.527 1.184-56.235 15.325-75.568 73.078-12.302 155.162 11.058 14.35 26.441 24.496 67.312 24.496 13.287 0 29.27-1.072 48.675-3.423 43.222-5.234 60.917-56.455 66.782-103.907 1.095-8.86 2.116-17.153 2.715-24.853 2.063-26.521-0.961-45.984-23.806-57.055z" p-id="6417" fill="#d81e06"></path></svg>