<?xml version="1.0" standalone="no"?><!DOCTYPE svg PUBLIC "-//W3C//DTD SVG 1.1//EN" "http://www.w3.org/Graphics/SVG/1.1/DTD/svg11.dtd"><svg t="1703317701040" class="icon" viewBox="0 0 1024 1024" version="1.1" xmlns="http://www.w3.org/2000/svg" p-id="7582" xmlns:xlink="http://www.w3.org/1999/xlink" width="200" height="200"><path d="M512 512m-512 0a512 512 0 1 0 1024 0 512 512 0 1 0-1024 0Z" fill="#FFB900" p-id="7583"></path><path d="M902.736842 215.578947H520.084211S188.631579 215.578947 188.631579 540.672c0 170.725053 114.634105 239.481263 203.546947 267.115789 83.415579 25.950316 174.133895 16.074105 248.818527-29.534315 61.089684-37.308632 120.656842-103.370105 132.392421-219.890527 0 0 99.705263-35.368421 129.347368-198.602105h-47.831579S897.347368 297.189053 902.736842 215.578947z" fill="#FFB900" p-id="7584"></path><path d="M773.066105 406.784H808.421053c-3.098947 12.247579-5.227789 23.673263-8.865685 34.627368-15.642947 47.184842-42.711579 86.016-85.962105 112.586106-4.015158 2.452211-4.284632 5.564632-4.675368 9.431579-9.094737 93.332211-52.587789 163.152842-142.120421 200.380631-35.435789 14.821053-72.933053 19.146105-111.346527 17.246316-38.170947-1.913263-74.469053-10.711579-108.234105-28.604632-63.097263-33.374316-100.069053-85.786947-113.04421-154.812631-10.320842-55.066947-5.658947-108.826947 19.536842-159.622737 30.827789-62.194526 82.041263-101.052632 147.469473-122.826105 39.706947-13.231158 80.842105-18.593684 122.570106-18.728421 91.769263-0.282947 283.526737 0.808421 283.526736 0.808421s-15.669895 76.436211-33.805473 106.846316a9.337263 9.337263 0 0 0-0.404211 2.667789z" fill="#FFFFFF" p-id="7585"></path><path d="M773.066105 406.784H808.421053c-3.098947 12.247579-5.227789 23.673263-8.865685 34.627368-15.642947 47.184842-42.711579 86.016-85.962105 112.586106-4.015158 2.452211-4.284632 5.564632-4.675368 9.431579-9.094737 93.332211-52.587789 163.152842-142.120421 200.380631-35.435789 14.821053-72.933053 19.146105-111.346527 17.246316-38.170947-1.913263-74.469053-10.711579-108.234105-28.604632-63.097263-33.374316-100.069053-85.786947-113.04421-154.812631-10.320842-55.066947-5.658947-108.826947 19.536842-159.622737 30.827789-62.194526 82.041263-101.052632 147.469473-122.826105 39.706947-13.231158 80.842105-18.593684 122.570106-18.728421 91.769263-0.282947 283.526737 0.808421 283.526736 0.808421s-15.669895 76.436211-33.805473 106.846316a9.337263 9.337263 0 0 0-0.404211 2.667789z m-15.952842-75.425684h-8.946526c-74.940632 0-149.908211-0.026947-224.902737-0.094316-35.624421 0-70.629053 4.217263-104.596211 15.090526-53.261474 17.057684-96.781474 46.996211-125.628631 95.380211-27.109053 45.608421-32.916211 94.989474-23.174737 146.337684 11.304421 59.674947 43.129263 105.162105 98.384842 132.877474 45.082947 22.635789 93.237895 27.540211 142.551579 19.078737 56.872421-9.754947 101.591579-38.319158 131.597474-87.834948 19.887158-32.768 28.092632-68.756211 29.44-106.590316 0.134737-3.597474 0-6.642526 4.352-8.730947 27.782737-13.244632 47.912421-34.384842 62.329263-60.995368 7.814737-13.958737 13.271579-29.089684 16.128-44.786527h-44.436211c25.411368-29.413053 40.757895-61.978947 46.901895-99.73221z" fill="#3D3D3D" p-id="7586"></path><path d="M454.831158 485.052632h46.969263C553.512421 485.052632 579.368421 509.749895 579.368421 559.157895S553.512421 633.263158 501.800421 633.263158h-46.969263C403.119158 633.263158 377.263158 608.565895 377.263158 559.157895s25.856-74.105263 77.568-74.105263z" fill="#FF6D6D" p-id="7587"></path><path d="M363.789474 464.842105a20.210526 20.210526 0 1 0 40.421052 0 20.210526 20.210526 0 0 0-40.421052 0zM431.157895 565.894737a13.473684 13.473684 0 1 0 26.947368 0 13.473684 13.473684 0 0 0-26.947368 0zM498.526316 565.894737a13.473684 13.473684 0 1 0 26.947368 0 13.473684 13.473684 0 0 0-26.947368 0zM565.894737 464.842105a20.210526 20.210526 0 1 0 40.421052 0 20.210526 20.210526 0 0 0-40.421052 0z" fill="#3D3D3D" p-id="7588"></path></svg>