<?xml version="1.0" standalone="no"?><!DOCTYPE svg PUBLIC "-//W3C//DTD SVG 1.1//EN" "http://www.w3.org/Graphics/SVG/1.1/DTD/svg11.dtd"><svg t="1703319443097" class="icon" viewBox="0 0 1026 1024" version="1.1" xmlns="http://www.w3.org/2000/svg" p-id="16390" xmlns:xlink="http://www.w3.org/1999/xlink" width="200.390625" height="200"><path d="M0.00394 53.894737v754.526316h1024V53.894737H0.00394z m293.868144 482.783379v22.125208H147.051474v-255.290859h55.256288v211.3241h91.450859v21.898283z m86.118116 22.125208H324.790643v-255.290859h55.199557v255.290859z m193.056621 0h-44.363879l-116.753019-255.290859h58.206316l80.558449 194.701829 80.671911-194.701829h58.206316l-116.526094 255.290859z m303.852853-233.392576v22.125208h-105.520222v62.801551h100.584598v43.966759h-100.584598v60.532299h105.520222v43.966759h-160.719779v-255.290859h160.719779v21.898283zM485.056571 808.421053h53.894737v215.578947h-53.894737z" fill="#2F8DF7" p-id="16391"></path><path d="M323.372361 970.105263h377.263158v53.894737h-377.263158z" fill="#2F8DF7" p-id="16392"></path></svg>