<?xml version="1.0" standalone="no"?><!DOCTYPE svg PUBLIC "-//W3C//DTD SVG 1.1//EN" "http://www.w3.org/Graphics/SVG/1.1/DTD/svg11.dtd"><svg t="1703319563009" class="icon" viewBox="0 0 1024 1024" version="1.1" xmlns="http://www.w3.org/2000/svg" p-id="7912" xmlns:xlink="http://www.w3.org/1999/xlink" width="200" height="200"><path d="M853.933758 150.542151h-57.986241V64.068627c0-35.235894-37.913131-64.068627-84.265111-64.068627H312.305257c-46.35198 0-84.277449 28.832733-84.277449 64.068627v86.473524h-57.986241C86.34398 150.542151 17.858528 219.027603 17.858528 302.725189v569.079435c0 83.709924 68.485452 152.195376 152.183039 152.195376h683.892191c83.709924 0 152.195376-68.485452 152.195376-152.195376V302.725189c0-83.697587-68.485452-152.183038-152.195376-152.183038zM721.256304 640.760298a50.879842 50.879842 0 0 1-50.731792 50.731792h-71.643851v71.680864a50.879842 50.879842 0 0 1-50.731792 50.731792h-72.273063a50.879842 50.879842 0 0 1-50.731792-50.731792v-71.680864h-71.680864a50.879842 50.879842 0 0 1-50.682442-50.731792v-72.285401a50.879842 50.879842 0 0 1 50.731792-50.731792h71.680864v-71.643851a50.879842 50.879842 0 0 1 50.731792-50.731792h72.236051a50.879842 50.879842 0 0 1 50.719454 50.731792v71.693201h71.680864a50.879842 50.879842 0 0 1 50.694779 50.682442z m0.999338-490.218147H301.769033V100.044772c0-23.441246 25.291871-42.712418 56.184966-42.712419h308.079664c30.905433 0 56.184966 19.221822 56.184966 42.712419z" fill="#1296db" p-id="7913"></path></svg>