<?xml version="1.0" standalone="no"?><!DOCTYPE svg PUBLIC "-//W3C//DTD SVG 1.1//EN" "http://www.w3.org/Graphics/SVG/1.1/DTD/svg11.dtd"><svg t="1703315775336" class="icon" viewBox="0 0 1024 1024" version="1.1" xmlns="http://www.w3.org/2000/svg" p-id="15186" xmlns:xlink="http://www.w3.org/1999/xlink" width="200" height="200"><path d="M81.6 385.6c-12 36.8-15.2 76.8-15.2 116.8 0 251.2 199.2 454.4 445.6 454.4 245.6 0 445.6-203.2 445.6-454.4 0-183.2-106.4-341.6-260-413.6-56.8-26.4-108.8-32.8-120-3.2-10.4 30.4 30.4 59.2 60 72.8 29.6 13.6 110.4 52 106.4 128-3.2 76-121.6 84.8-192 55.2-69.6-28.8-171.2-72-195.2-52s-28 70.4 28 104c56.8 33.6 180.8 101.6 198.4 187.2 17.6 85.6 4.8 256.8-241.6 184C284.8 748 224 658.4 206.4 619.2c-50.4-112.8 9.6-226.4 32-260 32-48.8 32-96.8-24.8-117.6-54.4-20-98.4 39.2-132 144z" fill="#30B4FF" p-id="15187"></path><path d="M576.8 167.2c40.8 16 62.4 54.4 48 85.6-14.4 31.2-59.2 44-100 28s-62.4-54.4-48-85.6c14.4-31.2 59.2-44 100-28z" fill="#30B4FF" p-id="15188"></path></svg>