<?xml version="1.0" standalone="no"?><!DOCTYPE svg PUBLIC "-//W3C//DTD SVG 1.1//EN" "http://www.w3.org/Graphics/SVG/1.1/DTD/svg11.dtd"><svg t="1703319419915" class="icon" viewBox="0 0 1024 1024" version="1.1" xmlns="http://www.w3.org/2000/svg" p-id="15356" xmlns:xlink="http://www.w3.org/1999/xlink" width="200" height="200"><path d="M102.4 273.067a68.267 68.267 0 0 0-68.267 68.267v443.733A136.533 136.533 0 0 0 170.666 921.6h217.7c14.473 0 26.692 10.1 37.171 20.07a51.122 51.122 0 0 0 35.26 14.063H563.2a51.122 51.122 0 0 0 35.26-14.063c10.479-9.967 22.7-20.07 37.171-20.07h217.7a136.533 136.533 0 0 0 136.535-136.531V341.333a68.268 68.268 0 0 0-68.266-68.267H102.4z" fill="#3E8BF8" p-id="15357"></path><path d="M170.667 68.267a68.268 68.268 0 0 0-68.267 68.266v614.4a102.4 102.4 0 0 0 102.4 102.4h614.4a102.4 102.4 0 0 0 102.4-102.4v-614.4a68.267 68.267 0 0 0-68.267-68.267H716.8c-113.108 0-204.8 91.692-204.8 204.8 0-113.108-91.692-204.8-204.8-204.8H170.667z" fill="#80B7F9" p-id="15358"></path><path d="M437.8 604.856a51.2 51.2 0 0 1-51.2 51.2H228.922a51.2 51.2 0 0 1 0-102.4H386.6a51.2 51.2 0 0 1 51.2 51.2" fill="#FFFFFF" p-id="15359"></path><path d="M438.8 399.856a51.2 51.2 0 0 1-51.2 51.2H229.922a51.2 51.2 0 0 1 0-102.4H387.6a51.2 51.2 0 0 1 51.2 51.2" fill="#FFFFFF" p-id="15360"></path><path d="M843.8 604.856a51.2 51.2 0 0 1-51.2 51.2H634.922a51.2 51.2 0 0 1 0-102.4H792.6a51.2 51.2 0 0 1 51.2 51.2" fill="#FFFFFF" p-id="15361"></path><path d="M844.8 399.856a51.2 51.2 0 0 1-51.2 51.2H635.922a51.2 51.2 0 0 1 0-102.4H793.6a51.2 51.2 0 0 1 51.2 51.2" fill="#FFFFFF" p-id="15362"></path></svg>