<?xml version="1.0" standalone="no"?><!DOCTYPE svg PUBLIC "-//W3C//DTD SVG 1.1//EN" "http://www.w3.org/Graphics/SVG/1.1/DTD/svg11.dtd"><svg t="1703315741158" class="icon" viewBox="0 0 1024 1024" version="1.1" xmlns="http://www.w3.org/2000/svg" p-id="12881" xmlns:xlink="http://www.w3.org/1999/xlink" width="200" height="200"><path d="M315.941926 552.466963a57.647407 57.647407 0 0 1-0.113778-0.796444l-0.075852-0.056889 0.075852-0.018963v-0.075852l0.075852 0.075852c5.613037-0.417185 169.472-10.979556 200.059259 154.415407l3.034074-0.056889c28.34963-165.546667 192.170667-157.335704 197.802667-157.013333l0.075852-0.075852v0.075852h0.075852l-0.094815 0.075852a59.126519 59.126519 0 0 1-0.113778 0.83437c3.451259 0 5.594074 0.113778 6.162963 0.151704l0.075852-0.075852v0.075852h0.075852l-0.094815 0.075852c-0.70163 5.499259-21.807407 158.264889-173.435259 169.756444l2.465185 132.323556-0.056889 1.232592c-0.227556 4.759704-0.151704 10.353778 0.246519 16.289185 2.180741 16.365037 6.959407 33.071407 15.056592 40.334223 1.820444 1.630815 5.594074 5.025185 16.839111 3.242666l11.567408-2.294518c154.870519-36.333037 263.054222-174.212741 261.897481-334.999704a339.77837 339.77837 0 0 0-101.641481-240.96237c-64.891259-64.094815-150.793481-99.13837-241.967408-98.379852-188.150519 1.34637-340.138667 155.742815-338.792296 344.215704a341.712593 341.712593 0 0 0 208.232296 312.433777l0.132741 0.056889 0.037926 0.018963a32.711111 32.711111 0 0 1 15.777185 44.619852 33.678222 33.678222 0 0 1-46.023111 28.918519l-0.075852 0.208592A419.65037 419.65037 0 0 1 97.336889 583.338667c-1.232593-171.633778 101.129481-320.227556 248.32-386.275556-67.602963-62.539852-132.968296-83.512889-133.726815-83.759407V113.208889a32.654222 32.654222 0 0 1-19.531852-17.787259 33.697185 33.697185 0 0 1 30.170074-58.766223l0.018963-0.094814c4.399407 1.34637 106.211556 34.019556 197.214815 135.414518a417.716148 417.716148 0 0 1 93.582222-11.377778c33.943704-0.18963 67.128889 4.039111 99.309037 11.605334C703.715556 70.637037 805.717333 37.925926 810.097778 36.598519l0.037926 0.094814a33.621333 33.621333 0 0 1 41.396148 22.357334 33.697185 33.697185 0 0 1-11.226074 36.408889c-3.602963 8.097185-10.42963 14.715259-19.456 17.749333l0.018963 0.075852c-0.758519 0.246519-66.635852 21.807407-133.878519 83.911111a418.228148 418.228148 0 0 1 123.543704 84.271407c79.701333 78.696296 124.017778 183.808 124.814222 295.936 1.403259 197.404444-131.470222 366.724741-323.128889 411.648l-14.354963 2.844445a111.691852 111.691852 0 0 1-17.521777 1.441185c-27.249778 0-45.511111-10.979556-56.756149-21.162667-40.523852-36.655407-39.594667-107.861333-39.025777-121.059555l-2.465186-131.432297c-148.536889-11.529481-171.595852-161.412741-172.373333-166.874074l-0.075852-0.056889h0.075852v-0.094814l0.075852 0.075851c0.568889-0.037926 2.711704-0.18963 6.144-0.246518z" fill="#29AB91" p-id="12882"></path></svg>