<?xml version="1.0" standalone="no"?><!DOCTYPE svg PUBLIC "-//W3C//DTD SVG 1.1//EN" "http://www.w3.org/Graphics/SVG/1.1/DTD/svg11.dtd"><svg t="1703317629495" class="icon" viewBox="0 0 1024 1024" version="1.1" xmlns="http://www.w3.org/2000/svg" p-id="4379" xmlns:xlink="http://www.w3.org/1999/xlink" width="200" height="200"><path d="M512.3072 510.8224m-450.816 0a450.816 450.816 0 1 0 901.632 0 450.816 450.816 0 1 0-901.632 0Z" fill="#59ADF8" p-id="4380"></path><path d="M614.2464 703.3344c-30.9248 14.2848-63.1808 21.8624-97.4336 20.9408-13.824-0.9728-27.9552-0.3584-41.4208-3.1744-95.4368-19.9168-151.9616-79.7184-173.824-173.2608-18.3808-78.6944 18.944-169.8816 88.3712-218.9824C471.7568 271.0528 582.8608 276.48 658.432 341.9648c15.3088 13.312 15.0016 19.2-2.7648 29.8496-25.0368 15.0016-50.432 29.3888-75.6224 44.1344-36.3008 21.2992-72.7552 42.3424-108.7488 64.2048-32.4096 19.712-34.6624 55.9616-4.864 79.36 19.9168 15.616 40.6016 10.1888 60.3648-1.1776 87.5008-50.3808 174.8992-100.864 262.2464-151.5008 18.2272-10.5472 20.3264-18.8928 11.1104-37.8368C772.5568 312.32 731.0848 268.8 676.352 237.2608c-60.2624-34.7648-124.2112-51.5584-193.8944-43.008-48.7936 5.9904-93.184 23.8592-135.3216 48.6912C204.8 326.7584 170.7008 505.7536 224.0512 625.664c51.4048 115.5072 140.6976 185.344 270.1312 195.84 75.4176 6.144 143.9744-13.7728 205.1584-58.5216 7.936-5.7856 11.8272-12.5952 6.9632-22.0672-27.648-53.5552-44.4928-59.5968-92.0576-37.5808z" fill="#FFFFFF" p-id="4381"></path><path d="M796.1088 520.3456c-1.5872-2.56-9.984-3.7376-13.312-1.9968-21.1968 11.1104-42.1376 22.6816-62.3616 35.4304-3.7376 2.3552-6.7072 12.3392-4.8128 16.128 10.752 21.2992 22.7328 42.0864 35.328 62.3616 2.2528 3.584 11.1104 7.3216 13.7728 5.7344 17.152-10.2912 34.048-21.248 49.664-33.7408 5.12-4.096 6.0928-13.3632 7.5264-16.8448-1.2288-28.0576-13.824-47.5648-25.8048-67.072z" fill="#FFFFFF" p-id="4382"></path></svg>