<?xml version="1.0" standalone="no"?><!DOCTYPE svg PUBLIC "-//W3C//DTD SVG 1.1//EN" "http://www.w3.org/Graphics/SVG/1.1/DTD/svg11.dtd"><svg t="1703319539717" class="icon" viewBox="0 0 1024 1024" version="1.1" xmlns="http://www.w3.org/2000/svg" p-id="5951" xmlns:xlink="http://www.w3.org/1999/xlink" width="200" height="200"><path d="M337.780914 481.38296H139.086259c-73.697654 0-133.486682-59.96966-133.486682-133.486682v-198.694655C5.599577 75.503969 65.569236 15.714941 139.086259 15.714941h198.694655c73.697654 0 133.486682 59.96966 133.486682 133.486682v198.694655c0 73.697654-59.789028 133.486682-133.486682 133.486682zM139.26689 85.438702c-35.223143 0-63.943553 28.720409-63.943553 63.943552v198.694656c0 35.223143 28.720409 63.943553 63.943553 63.943552h198.694655c35.223143 0 63.943553-28.720409 63.943553-63.943552v-198.694656c0-35.223143-28.720409-63.943553-63.943553-63.943552h-198.694655zM884.010584 481.38296h-198.694655c-73.697654 0-133.486682-59.96966-133.486682-133.486682v-198.694655c0-73.697654 59.96966-133.486682 133.486682-133.486682h198.694655c73.697654 0 133.486682 59.96966 133.486682 133.486682v198.694655c0 73.697654-59.789028 133.486682-133.486682 133.486682zM685.49656 85.438702c-35.223143 0-63.943553 28.720409-63.943552 63.943552v198.694656c0 35.223143 28.720409 63.943553 63.943552 63.943552h198.694655c35.223143 0 63.943553-28.720409 63.943553-63.943552v-198.694656c0-35.223143-28.720409-63.943553-63.943553-63.943552h-198.694655zM337.780914 1016.955371H139.086259c-73.697654 0-133.486682-59.96966-133.486682-133.486682v-198.694655c0-73.697654 59.96966-133.486682 133.486682-133.486682h198.694655c73.697654 0 133.486682 59.96966 133.486682 133.486682v198.694655c0 73.517022-59.789028 133.486682-133.486682 133.486682zM139.26689 620.830482c-35.223143 0-63.943553 28.720409-63.943553 63.943552v198.694655c0 35.223143 28.720409 63.943553 63.943553 63.943553h198.694655c35.223143 0 63.943553-28.720409 63.943553-63.943553v-198.694655c0-35.223143-28.720409-63.943553-63.943553-63.943552h-198.694655zM884.010584 1016.955371h-198.694655c-73.697654 0-133.486682-59.96966-133.486682-133.486682v-198.694655c0-73.697654 59.96966-133.486682 133.486682-133.486682h198.694655c73.697654 0 133.486682 59.96966 133.486682 133.486682v198.694655c0 73.517022-59.789028 133.486682-133.486682 133.486682zM685.49656 620.830482c-35.223143 0-63.943553 28.720409-63.943552 63.943552v198.694655c0 35.223143 28.720409 63.943553 63.943552 63.943553h198.694655c35.223143 0 63.943553-28.720409 63.943553-63.943553v-198.694655c0-35.223143-28.720409-63.943553-63.943553-63.943552h-198.694655z" fill="#333333" p-id="5952"></path></svg>