<?xml version="1.0" standalone="no"?><!DOCTYPE svg PUBLIC "-//W3C//DTD SVG 1.1//EN" "http://www.w3.org/Graphics/SVG/1.1/DTD/svg11.dtd"><svg t="1703315758518" class="icon" viewBox="0 0 1024 1024" version="1.1" xmlns="http://www.w3.org/2000/svg" p-id="13958" xmlns:xlink="http://www.w3.org/1999/xlink" width="200" height="200"><path d="M398.517389 256.714779l235.342006 0 63.10627-86.570681c0 0 47.312562-57.732889-15.794731-83.421968-60.335157-24.580838-156.751067-22.655999-164.971285-22.452361-8.268314-0.203638-104.636129-2.128477-164.971285 22.452361-63.082734 25.688055-15.818267 83.421968-15.818267 83.421968L398.517389 256.714779z" fill="#F15A4A" p-id="13959"></path><path d="M621.095697 301.054637 406.997528 301.054637c0 0-283.274692 105.657388-283.274692 397.165602 0 254.790964 311.719534 262.703167 390.323776 260.686231 78.623685 2.015913 390.323776-5.895267 390.323776-260.686231C904.370389 406.712025 621.095697 301.054637 621.095697 301.054637zM592.014358 654.969179l63.958684 0c14.856359 0 26.900673 11.93789 26.900673 26.894534 0 14.853289-12.170181 26.894534-27.00812 26.894534L551.712467 708.758246l0 115.895567c0 15.084557-12.193717 27.313066-27.472702 27.313066-15.172561 0-27.472702-12.446473-27.472702-27.313066L496.767064 708.758246l-97.339956 0c-14.915711 0-27.00812-11.93789-27.00812-26.894534 0-14.853289 11.965519-26.894534 26.721595-26.894534l97.626481 0 0-55.239092-96.52438 0c-15.366989 0-27.823696-12.325723-27.823696-27.76946 0-15.33629 12.554944-27.76946 27.823696-27.76946l62.394049 0-72.256674-72.256674c-9.638521-9.638521-9.674337-25.229614 0.069585-34.974559 9.677407-9.677407 25.282826-9.761318 34.974559-0.069585l83.372849 83.372849c6.481621 6.481621 8.599865 15.651468 6.342452 23.928992l5.38873 0c-1.397836-7.819083 0.924045-16.136515 6.953366-22.165836l84.854597-84.854597c9.863648-9.863648 25.746384-9.777691 35.595706 0.071631 9.917884 9.917884 9.881045 25.786293 0.070608 35.595706l-71.354118 71.353095 78.400604 0c15.366989 0 27.823696 12.325723 27.823696 27.76946 0 15.33629-12.554944 27.76946-27.823696 27.76946L551.712467 599.73111l0 55.239092L592.014358 654.970202z" fill="#F15A4A" p-id="13960"></path></svg>