<?xml version="1.0" standalone="no"?><!DOCTYPE svg PUBLIC "-//W3C//DTD SVG 1.1//EN" "http://www.w3.org/Graphics/SVG/1.1/DTD/svg11.dtd"><svg t="1704176312492" class="icon" viewBox="0 0 1024 1024" version="1.1" xmlns="http://www.w3.org/2000/svg" p-id="3840" xmlns:xlink="http://www.w3.org/1999/xlink" width="200" height="200"><path d="M511.730298 1021.95134c282.035465 0 510.695853-228.670382 510.695853-510.71584 0-282.035465-228.670382-510.695853-510.695853-510.695853C229.694832 0.539647 1.024451 229.210029 1.024451 511.245494s228.670382 510.705847 510.705847 510.705846z m-49.91734-699.672206v-83.685245h92.559439v83.685245h188.896406v36.775937l-188.896406 1.279163v51.965999l156.017918 1.279163s-2.808163 29.170914-22.595216 82.216206c-19.797047 53.045293-38.304937 80.117579-38.304937 80.11758l302.651975 99.325012s-10.852899 28.411411-23.944333 53.305122c-13.081441 24.903706-31.279534 51.706169-31.279534 51.706169L607.67752 643.129203s-54.704207 60.520402-110.497702 87.142982c-55.783501 26.622581-119.881562 43.22172-189.206203 26.812457-69.404589-16.339309-118.612392-60.700284-110.11795-142.606693 8.484449-81.916402 96.007183-110.127944 168.020065-110.127944s208.683459 46.669464 208.683459 46.669465 11.482487-25.723169 22.655177-55.153913c11.17269-29.42075 14.370597-53.045293 14.370597-53.045293H320.595357v-29.230874h141.397484v-55.793495l-176.254678 1.279163v-36.775937h176.074795z m77.819083 286.962241s-86.623323 102.912665-188.706529 102.912665-123.519182-48.898006-123.519182-84.07499c0-35.186977 21.196131-73.352006 108.06929-78.908371 86.883153-5.496404 204.156421 60.070696 204.156421 60.070696z m0 0" fill="#3876f6" p-id="3841"></path></svg>